<svg width="251" height="17" viewBox="0 0 251 17" fill="none" xmlns="http://www.w3.org/2000/svg">
<g clip-path="url(#clip0_4053_71)">
<path d="M21.2335 15.7836H17.2642L19.7469 1.26318H23.716L21.2335 15.7836Z" fill="#00579F"/>
<path d="M35.6223 1.61819C34.8393 1.32439 33.5976 1 32.0621 1C28.1422 1 25.3819 2.97714 25.365 5.80386C25.3324 7.88941 27.3413 9.04777 28.8438 9.74316C30.3795 10.4537 30.9015 10.9175 30.9015 11.5509C30.8858 12.5237 29.6606 12.9721 28.5177 12.9721C26.933 12.9721 26.0839 12.7409 24.7935 12.1997L24.2708 11.9677L23.7153 15.2272C24.6463 15.6284 26.3615 15.9844 28.1422 16C32.3071 16 35.0186 14.0535 35.0508 11.0411C35.0666 9.38818 34.0058 8.12161 31.7189 7.08664C30.3306 6.42226 29.4804 5.97427 29.4804 5.29449C29.4967 4.6765 30.1995 4.04353 31.7667 4.04353C33.0571 4.01252 34.0052 4.30591 34.7234 4.59951L35.0825 4.7537L35.6223 1.61819Z" fill="#00579F"/>
<path d="M40.8981 10.6395C41.225 9.80534 42.4828 6.57683 42.4828 6.57683C42.4663 6.60783 42.809 5.72726 43.005 5.18667L43.2824 6.43784C43.2824 6.43784 44.0341 9.91354 44.1973 10.6395C43.577 10.6395 41.6821 10.6395 40.8981 10.6395ZM45.7977 1.26318H42.7274C41.7806 1.26318 41.0613 1.52557 40.6528 2.46795L34.7568 15.7834H38.9217C38.9217 15.7834 39.6074 13.9912 39.7548 13.6052C40.2117 13.6052 44.2633 13.6052 44.8511 13.6052C44.9651 14.115 45.3247 15.7834 45.3247 15.7834H49L45.7977 1.26318Z" fill="#00579F"/>
<path d="M13.9484 1.26318L10.0611 11.1647L9.63632 9.15656C8.91764 6.83942 6.66371 4.3219 4.14844 3.07012L7.70906 15.7682H11.9065L18.1457 1.26318H13.9484Z" fill="#00579F"/>
<path d="M6.45162 1.26318H0.0653342L0 1.55657C4.9817 2.76154 8.28099 5.66607 9.63651 9.15718L8.24821 2.48376C8.01965 1.55637 7.31725 1.29377 6.45162 1.26318Z" fill="#FAA61A"/>
</g>
<g clip-path="url(#clip1_4053_71)">
<path d="M90.4849 1.81787H97.5149V15.1818H90.4849V1.81787Z" fill="#FF5F00"/>
<path d="M90.9313 8.5C90.9313 5.78472 92.1365 3.37639 93.9888 1.81806C92.6275 0.684725 90.909 0 89.0343 0C84.5931 0 81 3.80139 81 8.5C81 13.1986 84.5931 17 89.0343 17C90.909 17 92.6275 16.3153 93.9888 15.1819C92.1365 13.6472 90.9313 11.2153 90.9313 8.5Z" fill="#EB001B"/>
<path d="M107 8.5C107 13.1986 103.407 17 98.9657 17C97.0911 17 95.3726 16.3153 94.0112 15.1819C95.8859 13.6236 97.0687 11.2153 97.0687 8.5C97.0687 5.78472 95.8636 3.37639 94.0112 1.81806C95.3726 0.684725 97.0911 0 98.9657 0C103.407 0 107 3.825 107 8.5Z" fill="#F79E1B"/>
</g>
<g clip-path="url(#clip2_4053_71)">
<path d="M145.765 2.93387C145.331 3.44053 144.637 3.84015 143.944 3.78306C143.857 3.098 144.197 2.37012 144.594 1.92055C145.028 1.39962 145.786 1.02854 146.401 1C146.473 1.71361 146.191 2.41294 145.765 2.93387ZM146.393 3.91865C145.389 3.86156 144.529 4.4824 144.052 4.4824C143.568 4.4824 142.838 3.94719 142.043 3.96147C141.01 3.97574 140.048 4.55376 139.521 5.47431C138.437 7.31541 139.239 10.0414 140.287 11.54C140.8 12.2821 141.414 13.0956 142.224 13.0671C142.99 13.0385 143.293 12.5747 144.218 12.5747C145.15 12.5747 145.418 13.0671 146.227 13.0528C147.065 13.0385 147.593 12.3107 148.106 11.5685C148.691 10.7265 148.93 9.9058 148.944 9.86299C148.93 9.84872 147.326 9.24215 147.311 7.41532C147.297 5.8882 148.576 5.16032 148.634 5.11751C147.911 4.06137 146.784 3.94719 146.393 3.91865ZM152.196 1.84919V12.9743H153.945V9.17079H156.366C158.577 9.17079 160.131 7.67222 160.131 5.50285C160.131 3.33349 158.606 1.84919 156.424 1.84919H152.196ZM153.945 3.30495H155.961C157.479 3.30495 158.346 4.10419 158.346 5.50999C158.346 6.91579 157.479 7.72217 155.954 7.72217H153.945V3.30495ZM163.325 13.0599C164.424 13.0599 165.443 12.5105 165.905 11.6399H165.941V12.9743H167.56V7.43673C167.56 5.83111 166.259 4.79638 164.257 4.79638C162.4 4.79638 161.027 5.84539 160.977 7.28687H162.552C162.682 6.60181 163.325 6.15224 164.207 6.15224C165.276 6.15224 165.876 6.64462 165.876 7.5509V8.16461L163.694 8.29305C161.663 8.41437 160.565 9.23501 160.565 10.6622C160.565 12.1037 161.699 13.0599 163.325 13.0599ZM163.795 11.7398C162.863 11.7398 162.27 11.2973 162.27 10.6194C162.27 9.92008 162.841 9.51332 163.932 9.4491L165.876 9.32778V9.95576C165.876 10.9976 164.98 11.7398 163.795 11.7398ZM169.721 16C171.426 16 172.228 15.3578 172.929 13.4096L176.001 4.90343H174.223L172.163 11.4757H172.127L170.068 4.90343H168.239L171.202 13.0029L171.043 13.4952C170.776 14.3302 170.342 14.6513 169.569 14.6513C169.432 14.6513 169.164 14.637 169.056 14.6227V15.9572C169.157 15.9857 169.591 16 169.721 16Z" fill="black"/>
</g>
<g clip-path="url(#clip3_4053_71)">
<path d="M213.16 2.0009H209.815C209.587 2.0009 209.392 2.18959 209.356 2.446L208.004 12.176C207.977 12.3679 208.108 12.541 208.279 12.541H209.876C210.105 12.541 210.3 12.3524 210.335 12.0955L210.7 9.47122C210.735 9.21428 210.93 9.02562 211.159 9.02562H212.218C214.421 9.02562 215.692 7.8161 216.024 5.41925C216.174 4.37061 216.031 3.54672 215.598 2.96971C215.123 2.33603 214.279 2.0009 213.16 2.0009ZM213.546 5.55464C213.363 6.91619 212.446 6.9162 211.559 6.9162H211.055L211.409 4.37343C211.43 4.21972 211.547 4.10654 211.684 4.10654H211.915C212.519 4.10654 213.089 4.10654 213.383 4.4971C213.559 4.73016 213.613 5.07635 213.546 5.55464Z" fill="#283B82"/>
<path d="M223.157 5.51064H221.556C221.419 5.51064 221.301 5.62384 221.28 5.77753L221.209 6.28575L221.097 6.10152C220.751 5.53059 219.977 5.33977 219.206 5.33977C217.436 5.33977 215.924 6.86054 215.63 8.99385C215.477 10.058 215.695 11.0756 216.227 11.7851C216.715 12.4376 217.413 12.7095 218.244 12.7095C219.67 12.7095 220.461 11.6692 220.461 11.6692L220.389 12.1741C220.362 12.3672 220.493 12.5403 220.664 12.5403H222.107C222.336 12.5403 222.53 12.3516 222.566 12.0948L223.432 5.87571C223.459 5.68429 223.328 5.51064 223.157 5.51064ZM220.925 9.04712C220.77 10.0852 220.044 10.7821 219.118 10.7821C218.653 10.7821 218.281 10.6128 218.042 10.2921C217.806 9.97366 217.716 9.52037 217.791 9.01546C217.935 7.98627 218.674 7.2667 219.586 7.2667C220.041 7.2667 220.41 7.43812 220.654 7.76153C220.898 8.08833 220.995 8.54441 220.925 9.04712Z" fill="#283B82"/>
<path d="M231.687 5.51073H230.078C229.924 5.51073 229.78 5.59728 229.693 5.74212L227.473 9.45169L226.532 5.88692C226.473 5.66385 226.292 5.51073 226.086 5.51073H224.505C224.312 5.51073 224.179 5.72376 224.24 5.92906L226.013 11.8313L224.346 14.5006C224.215 14.7108 224.347 15 224.574 15H226.181C226.334 15 226.476 14.9156 226.563 14.7736L231.916 6.00733C232.044 5.79756 231.913 5.51073 231.687 5.51073Z" fill="#283B82"/>
<path d="M237.016 2.0009H233.671C233.443 2.0009 233.248 2.18959 233.212 2.446L231.859 12.176C231.833 12.3679 231.964 12.541 232.134 12.541H233.851C234.01 12.541 234.147 12.409 234.172 12.2292L234.556 9.47122C234.591 9.21428 234.786 9.02562 235.014 9.02562H236.073C238.276 9.02562 239.547 7.8161 239.88 5.41925C240.03 4.37061 239.886 3.54672 239.453 2.96971C238.978 2.33603 238.135 2.0009 237.016 2.0009ZM237.402 5.55464C237.219 6.91619 236.303 6.9162 235.415 6.9162H234.911L235.266 4.37343C235.287 4.21972 235.403 4.10654 235.541 4.10654H235.772C236.375 4.10654 236.946 4.10654 237.24 4.4971C237.416 4.73016 237.469 5.07635 237.402 5.55464Z" fill="#469BDB"/>
<path d="M247.013 5.51064H245.413C245.275 5.51064 245.158 5.62384 245.138 5.77753L245.067 6.28575L244.954 6.10152C244.608 5.53059 243.835 5.33977 243.063 5.33977C241.293 5.33977 239.782 6.86054 239.488 8.99385C239.335 10.058 239.552 11.0756 240.084 11.7851C240.573 12.4376 241.27 12.7095 242.101 12.7095C243.527 12.7095 244.318 11.6692 244.318 11.6692L244.247 12.1741C244.22 12.3672 244.351 12.5403 244.522 12.5403H245.965C246.193 12.5403 246.388 12.3516 246.423 12.0948L247.289 5.87571C247.316 5.68429 247.185 5.51064 247.013 5.51064ZM244.781 9.04712C244.627 10.0852 243.9 10.7821 242.974 10.7821C242.509 10.7821 242.137 10.6128 241.898 10.2921C241.662 9.97366 241.573 9.52037 241.647 9.01546C241.792 7.98627 242.53 7.2667 243.442 7.2667C243.896 7.2667 244.266 7.43812 244.51 7.76153C244.755 8.08833 244.852 8.54441 244.781 9.04712Z" fill="#469BDB"/>
<path d="M248.901 2.26784L247.528 12.176C247.502 12.3679 247.633 12.541 247.803 12.541H249.183C249.413 12.541 249.607 12.3524 249.643 12.0955L250.996 2.36613C251.023 2.17408 250.892 2.00044 250.721 2.00044H249.176C249.04 2.0009 248.922 2.11423 248.901 2.26784Z" fill="#469BDB"/>
</g>
<defs>
<clipPath id="clip0_4053_71">
<rect width="49" height="15" fill="white" transform="translate(0 1)"/>
</clipPath>
<clipPath id="clip1_4053_71">
<rect width="26" height="17" fill="white" transform="translate(81)"/>
</clipPath>
<clipPath id="clip2_4053_71">
<rect width="37" height="15" fill="white" transform="translate(139 1)"/>
</clipPath>
<clipPath id="clip3_4053_71">
<rect width="43" height="13" fill="white" transform="translate(208 2)"/>
</clipPath>
</defs>
</svg>
